<svg width="203" height="48" viewBox="0 0 203 48" fill="none" xmlns="http://www.w3.org/2000/svg">
<g clip-path="url(#clip0_47950_28385)">
<path d="M94.0262 12.5326H103.616C106.559 12.5326 110.97 13.3831 110.97 18.3843C110.97 21.0633 109.146 22.9936 106.429 23.4841V23.55C109.535 23.847 111.78 25.9429 111.78 28.7445C111.78 34.3369 106.614 35.351 103.743 35.351H94.026L94.0262 12.5326ZM98.5568 21.6884H101.989C103.916 21.6884 106.3 21.126 106.3 18.766C106.3 16.1199 103.979 15.9404 101.885 15.9404H98.5566L98.5568 21.6884ZM98.5568 31.7994H102.501C104.628 31.7994 107.112 31.3467 107.112 28.6977C107.112 25.7215 104.791 25.21 102.501 25.21H98.5568V31.7994Z" fill="#63666A"/>
<path d="M198.964 28.7955C198.964 31.2701 197.369 33.1575 194.341 33.1575C192.941 33.1575 191.248 32.2133 191.248 30.4555C191.248 27.5262 195.35 27.2649 197.011 27.2649C197.661 27.2649 198.312 27.3307 198.964 27.3307L198.964 28.7955ZM190.044 22.4144C191.281 21.3736 193.137 20.7225 194.862 20.7225C197.923 20.7225 198.964 22.1871 198.964 25.0517C197.759 24.9868 196.913 24.9868 195.708 24.9868C192.551 24.9868 187.993 26.2889 187.993 30.4555C187.993 34.0699 190.5 35.6322 194.081 35.6322C196.881 35.6322 198.508 34.1017 199.225 33.0926H199.29V35.2413H202.154C202.089 34.7526 202.025 33.8742 202.025 31.9859V25.1163C202.025 20.5916 200.103 18.2477 195.35 18.2477C193.235 18.2477 191.411 18.8988 189.882 19.81L190.044 22.4144ZM172.595 35.2413H175.655V26.7116L183.078 35.2413H187.472L178.781 25.9958L186.496 18.6386H182.329L175.655 25.3775V10.8258H172.595L172.595 35.2413ZM154.299 35.2413H157.359V27.5581C157.359 23.5221 158.923 20.7224 162.405 20.7224C165.074 20.8848 165.921 22.7733 165.921 26.6468V35.2413H168.982V25.3775C168.982 20.9168 167.06 18.2477 162.763 18.2477C160.452 18.2477 158.238 19.3874 157.327 21.2757H157.261V18.6386H154.299L154.299 35.2413ZM147.658 28.7955C147.658 31.2701 146.063 33.1575 143.036 33.1575C141.636 33.1575 139.943 32.2133 139.943 30.4555C139.943 27.5262 144.045 27.2649 145.705 27.2649C146.356 27.2649 147.007 27.3307 147.658 27.3307L147.658 28.7955ZM138.738 22.4144C139.975 21.3736 141.831 20.7225 143.556 20.7225C146.616 20.7225 147.658 22.1871 147.658 25.0517C146.454 24.9868 145.607 24.9868 144.403 24.9868C141.245 24.9868 136.688 26.2889 136.688 30.4555C136.688 34.0699 139.194 35.6322 142.774 35.6322C145.574 35.6322 147.202 34.1017 147.918 33.0926H147.983V35.2413H150.849C150.784 34.7526 150.718 33.8742 150.718 31.9859V25.1163C150.718 20.5916 148.798 18.2477 144.045 18.2477C141.928 18.2477 140.106 18.8988 138.576 19.81L138.738 22.4144ZM122.852 15.1878H126.27C128.158 15.1878 130.47 15.8717 130.47 18.5737C130.47 21.9268 127.8 22.2188 124.642 22.2188H122.852V15.1878ZM122.852 24.8891H124.968C127.767 24.8891 130.861 25.3777 130.861 28.8932C130.861 31.9531 128.224 32.5723 125.293 32.5723H122.852V24.8891ZM119.596 35.2413H125.651C130.275 35.2413 134.312 34.0697 134.312 29.1862C134.312 25.9958 132.13 23.9777 129.037 23.7164V23.6515C131.903 22.9356 133.725 21.3733 133.725 18.2475C133.725 14.048 130.47 12.5175 125.749 12.5175H119.596L119.596 35.2413Z" fill="#63666A"/>
<path d="M55.5429 12.5326H61.0187L70.6223 29.2541H70.697V12.5326H74.9812V35.351H69.5494L59.9668 18.5607H59.8951V35.351H55.5429V12.5326Z" fill="#63666A"/>
<path d="M78.0529 12.5326H82.6222V31.5732H91.16V35.351H78.0529V12.5326Z" fill="#63666A"/>
<path d="M24.0001 47.4069C11.0936 47.4069 0.593124 36.9067 0.593124 24C0.593124 11.0933 11.0936 0.593323 24.0001 0.593323C36.9066 0.593323 47.4071 11.0936 47.4071 24C47.4071 36.9063 36.9068 47.4069 24.0001 47.4069Z" fill="#230078"/>
<path d="M24.0001 1.18621C36.5997 1.18621 46.8138 11.4003 46.8138 23.9999C46.8138 36.5996 36.5997 46.8136 24.0001 46.8136C11.4004 46.8136 1.18621 36.5997 1.18621 24.0001C1.18621 11.4004 11.4004 1.18621 24.0001 1.18621ZM24.0001 0C10.7664 0 0 10.7664 0 24.0001C0 37.2337 10.7664 48.0002 24.0001 48.0002C37.2337 48.0002 48.0002 37.2337 48.0002 24.0001C48.0002 10.7664 37.2337 0 24.0001 0Z" fill="white"/>
<path d="M3.48473 31.071L11.5838 17.0402H18.0828L9.96785 31.071H3.48473ZM24.0055 31.0332C19.966 31.0332 16.6991 27.7762 16.6991 23.7367C16.6991 22.4188 17.0579 21.1646 17.675 20.0929L19.4495 17.0333H25.9386L22.55 22.8963C22.3985 23.1426 22.3236 23.4446 22.3236 23.7367C22.3236 24.6668 23.0763 25.4275 24.0054 25.4275C24.9266 25.4275 25.6902 24.6668 25.6902 23.7367C25.6902 22.9222 25.098 22.2274 24.3164 22.0887L27.1586 17.1499C29.6111 18.3313 31.299 20.8405 31.299 23.7367C31.299 27.7762 28.0272 31.0332 24.0055 31.0332Z" fill="white"/>
</g>
<defs>
<clipPath id="clip0_47950_28385">
<rect width="202.154" height="48" fill="white"/>
</clipPath>
</defs>
</svg>
